<svg xmlns="http://www.w3.org/2000/svg" viewBox="0 0 1200 1500" role="img" aria-labelledby="title desc">
  <title>Handtasche</title>
  <desc>Illustration einer eleganten Handtasche in zarten Markenfarben.</desc>
  <defs>
    <linearGradient id="bg" x1="0" y1="0" x2="1" y2="1">
      <stop offset="0%" stop-color="#fff7fa"/>
      <stop offset="100%" stop-color="#fde9f1"/>
    </linearGradient>
    <linearGradient id="bag" x1="0" y1="0" x2="1" y2="1">
      <stop offset="0%" stop-color="#d68aa0"/>
      <stop offset="100%" stop-color="#b86b82"/>
    </linearGradient>
  </defs>
  <rect width="1200" height="1500" rx="44" fill="url(#bg)"/>
  <circle cx="940" cy="230" r="150" fill="#74d4d4" opacity="0.12"/>
  <circle cx="240" cy="1240" r="180" fill="#d68aa0" opacity="0.10"/>
  <rect x="160" y="230" width="880" height="920" rx="52" fill="#fff" stroke="rgba(44,44,44,0.08)"/>
  <path d="M390 400c0-86 70-156 156-156s156 70 156 156" fill="none" stroke="#d68aa0" stroke-width="28" stroke-linecap="round"/>
  <path d="M320 465c0-44 36-80 80-80h400c44 0 80 36 80 80v410c0 44-36 80-80 80H400c-44 0-80-36-80-80V465Z" fill="url(#bag)"/>
  <path d="M365 533h470" stroke="rgba(255,255,255,0.42)" stroke-width="16" stroke-linecap="round"/>
  <path d="M430 607h340" stroke="rgba(255,255,255,0.24)" stroke-width="12" stroke-linecap="round"/>
  <text x="600" y="1220" text-anchor="middle" font-family="Poppins, Arial, sans-serif" font-size="58" font-weight="700" fill="#b86b82">Taschen</text>
  <text x="600" y="1280" text-anchor="middle" font-family="Inter, Arial, sans-serif" font-size="30" fill="#666067">Handgefertigte Unikate</text>
</svg>
