<svg xmlns="http://www.w3.org/2000/svg" viewBox="0 0 1200 1500" role="img" aria-labelledby="title desc">
  <title>Alltagsbegleiter</title>
  <desc>Illustration einer modernen Alltagstasche mit klaren Linien.</desc>
  <defs>
    <linearGradient id="bg" x1="0" y1="0" x2="1" y2="1">
      <stop offset="0%" stop-color="#fffafc"/>
      <stop offset="100%" stop-color="#effcfc"/>
    </linearGradient>
    <linearGradient id="bag" x1="0" y1="0" x2="1" y2="1">
      <stop offset="0%" stop-color="#74d4d4"/>
      <stop offset="100%" stop-color="#4fa9a9"/>
    </linearGradient>
  </defs>
  <rect width="1200" height="1500" rx="44" fill="url(#bg)"/>
  <circle cx="900" cy="320" r="170" fill="#d68aa0" opacity="0.10"/>
  <circle cx="220" cy="1180" r="160" fill="#74d4d4" opacity="0.12"/>
  <rect x="140" y="190" width="920" height="980" rx="56" fill="#fff" stroke="rgba(44,44,44,0.08)"/>
  <path d="M392 416c0-86 69-155 155-155s155 69 155 155" fill="none" stroke="#74d4d4" stroke-width="28" stroke-linecap="round"/>
  <path d="M308 476c0-40 32-72 72-72h440c40 0 72 32 72 72v430c0 40-32 72-72 72H380c-40 0-72-32-72-72V476Z" fill="url(#bag)"/>
  <path d="M360 548h480" stroke="rgba(255,255,255,0.42)" stroke-width="16" stroke-linecap="round"/>
  <path d="M388 640h410" stroke="rgba(255,255,255,0.22)" stroke-width="12" stroke-linecap="round"/>
  <text x="600" y="1230" text-anchor="middle" font-family="Poppins, Arial, sans-serif" font-size="58" font-weight="700" fill="#4fa9a9">Alltagsbegleiter</text>
  <text x="600" y="1290" text-anchor="middle" font-family="Inter, Arial, sans-serif" font-size="30" fill="#666067">Praktisch und stilvoll</text>
</svg>
