<svg xmlns="http://www.w3.org/2000/svg" viewBox="0 0 1200 1500" role="img" aria-labelledby="title desc">
  <title>Gassitasche Natur</title>
  <desc>Naturnahe Gassitasche in sanften Farben.</desc>
  <defs>
    <linearGradient id="bg" x1="0" y1="0" x2="1" y2="1">
      <stop offset="0%" stop-color="#fffafc"/>
      <stop offset="100%" stop-color="#effcfc"/>
    </linearGradient>
    <linearGradient id="bag" x1="0" y1="0" x2="1" y2="1">
      <stop offset="0%" stop-color="#74d4d4"/>
      <stop offset="100%" stop-color="#b86b82"/>
    </linearGradient>
  </defs>
  <rect width="1200" height="1500" rx="44" fill="url(#bg)"/>
  <circle cx="920" cy="260" r="170" fill="#d68aa0" opacity="0.10"/>
  <circle cx="250" cy="1220" r="190" fill="#74d4d4" opacity="0.12"/>
  <rect x="170" y="220" width="860" height="920" rx="52" fill="#fff" stroke="rgba(44,44,44,0.08)"/>
  <path d="M360 458c0-82 66-148 148-148s148 66 148 148" fill="none" stroke="#74d4d4" stroke-width="26" stroke-linecap="round"/>
  <path d="M312 520c0-42 34-76 76-76h424c42 0 76 34 76 76v390c0 42-34 76-76 76H388c-42 0-76-34-76-76V520Z" fill="url(#bag)"/>
  <path d="M406 638h388" stroke="rgba(255,255,255,0.34)" stroke-width="16" stroke-linecap="round"/>
  <circle cx="600" cy="738" r="68" fill="rgba(255,255,255,0.24)"/>
  <path d="M570 738h60" stroke="#fff" stroke-width="16" stroke-linecap="round"/>
  <text x="600" y="1220" text-anchor="middle" font-family="Poppins, Arial, sans-serif" font-size="58" font-weight="700" fill="#4fa9a9">Natur</text>
  <text x="600" y="1280" text-anchor="middle" font-family="Inter, Arial, sans-serif" font-size="30" fill="#666067">Sanft und alltagstauglich</text>
</svg>
