<svg xmlns="http://www.w3.org/2000/svg" viewBox="0 0 1200 1500" role="img" aria-labelledby="title desc">
  <title>Gassitasche Urban</title>
  <desc>Elegante Gassitasche mit urbanem Look.</desc>
  <defs>
    <linearGradient id="bg" x1="0" y1="0" x2="1" y2="1">
      <stop offset="0%" stop-color="#fff7fa"/>
      <stop offset="100%" stop-color="#fff3f7"/>
    </linearGradient>
    <linearGradient id="bag" x1="0" y1="0" x2="1" y2="1">
      <stop offset="0%" stop-color="#d68aa0"/>
      <stop offset="100%" stop-color="#4fa9a9"/>
    </linearGradient>
  </defs>
  <rect width="1200" height="1500" rx="44" fill="url(#bg)"/>
  <circle cx="930" cy="320" r="170" fill="#74d4d4" opacity="0.10"/>
  <circle cx="220" cy="1180" r="160" fill="#d68aa0" opacity="0.12"/>
  <rect x="170" y="230" width="860" height="900" rx="52" fill="#fff" stroke="rgba(44,44,44,0.08)"/>
  <path d="M372 448c0-80 64-144 144-144s144 64 144 144" fill="none" stroke="#d68aa0" stroke-width="26" stroke-linecap="round"/>
  <path d="M318 510c0-42 34-76 76-76h412c42 0 76 34 76 76v380c0 42-34 76-76 76H394c-42 0-76-34-76-76V510Z" fill="url(#bag)"/>
  <path d="M410 640h380" stroke="rgba(255,255,255,0.34)" stroke-width="16" stroke-linecap="round"/>
  <path d="M410 716h260" stroke="rgba(255,255,255,0.18)" stroke-width="12" stroke-linecap="round"/>
  <text x="600" y="1220" text-anchor="middle" font-family="Poppins, Arial, sans-serif" font-size="58" font-weight="700" fill="#b86b82">Urban</text>
  <text x="600" y="1280" text-anchor="middle" font-family="Inter, Arial, sans-serif" font-size="30" fill="#666067">Schlicht und funktional</text>
</svg>
