<svg xmlns="http://www.w3.org/2000/svg" viewBox="0 0 1200 1500" role="img" aria-labelledby="title desc">
  <title>Rucksack Klassik</title>
  <desc>Klassischer Rucksack mit eleganter, ruhiger Linienführung.</desc>
  <defs>
    <linearGradient id="bg" x1="0" y1="0" x2="1" y2="1">
      <stop offset="0%" stop-color="#fff7fa"/>
      <stop offset="100%" stop-color="#fde9f1"/>
    </linearGradient>
    <linearGradient id="bag" x1="0" y1="0" x2="1" y2="1">
      <stop offset="0%" stop-color="#d68aa0"/>
      <stop offset="100%" stop-color="#74d4d4"/>
    </linearGradient>
  </defs>
  <rect width="1200" height="1500" rx="44" fill="url(#bg)"/>
  <circle cx="920" cy="260" r="170" fill="#74d4d4" opacity="0.10"/>
  <circle cx="240" cy="1220" r="180" fill="#d68aa0" opacity="0.10"/>
  <rect x="170" y="220" width="860" height="920" rx="52" fill="#fff" stroke="rgba(44,44,44,0.08)"/>
  <path d="M410 438c0-106 84-190 190-190s190 84 190 190" fill="none" stroke="#d68aa0" stroke-width="28" stroke-linecap="round"/>
  <path d="M320 508c0-42 34-76 76-76h408c42 0 76 34 76 76v390c0 42-34 76-76 76H396c-42 0-76-34-76-76V508Z" fill="url(#bag)"/>
  <path d="M410 630h380" stroke="rgba(255,255,255,0.34)" stroke-width="16" stroke-linecap="round"/>
  <path d="M600 560v430" stroke="rgba(255,255,255,0.18)" stroke-width="12" stroke-linecap="round"/>
  <text x="600" y="1220" text-anchor="middle" font-family="Poppins, Arial, sans-serif" font-size="58" font-weight="700" fill="#b86b82">Klassik</text>
  <text x="600" y="1280" text-anchor="middle" font-family="Inter, Arial, sans-serif" font-size="30" fill="#666067">Zeitlos und vielseitig</text>
</svg>
