<svg xmlns="http://www.w3.org/2000/svg" viewBox="0 0 1200 1500" role="img" aria-labelledby="title desc">
  <title>Rucksack Mini</title>
  <desc>Komakter kleiner Rucksack mit femininer, ruhiger Form.</desc>
  <defs>
    <linearGradient id="bg" x1="0" y1="0" x2="1" y2="1">
      <stop offset="0%" stop-color="#fff7fa"/>
      <stop offset="100%" stop-color="#fff3f7"/>
    </linearGradient>
    <linearGradient id="bag" x1="0" y1="0" x2="1" y2="1">
      <stop offset="0%" stop-color="#d68aa0"/>
      <stop offset="100%" stop-color="#4fa9a9"/>
    </linearGradient>
  </defs>
  <rect width="1200" height="1500" rx="44" fill="url(#bg)"/>
  <circle cx="930" cy="250" r="170" fill="#74d4d4" opacity="0.10"/>
  <circle cx="230" cy="1210" r="180" fill="#d68aa0" opacity="0.10"/>
  <rect x="170" y="220" width="860" height="920" rx="52" fill="#fff" stroke="rgba(44,44,44,0.08)"/>
  <path d="M435 445c0-86 66-155 165-155s165 69 165 155" fill="none" stroke="#b86b82" stroke-width="28" stroke-linecap="round"/>
  <path d="M350 520c0-42 34-76 76-76h348c42 0 76 34 76 76v360c0 42-34 76-76 76H426c-42 0-76-34-76-76V520Z" fill="url(#bag)"/>
  <path d="M418 636h364" stroke="rgba(255,255,255,0.34)" stroke-width="16" stroke-linecap="round"/>
  <circle cx="600" cy="734" r="68" fill="rgba(255,255,255,0.24)"/>
  <text x="600" y="1220" text-anchor="middle" font-family="Poppins, Arial, sans-serif" font-size="58" font-weight="700" fill="#b86b82">Mini</text>
  <text x="600" y="1280" text-anchor="middle" font-family="Inter, Arial, sans-serif" font-size="30" fill="#666067">Klein, aber fein</text>
</svg>
